<?xml version="1.0" encoding="utf-8"?>
<!-- Generator: Adobe Illustrator 21.0.2, SVG Export Plug-In . SVG Version: 6.00 Build 0)  -->
<svg version="1.1" id="Layer_1" xmlns="http://www.w3.org/2000/svg" xmlns:xlink="http://www.w3.org/1999/xlink" x="0px" y="0px"
	 viewBox="0 0 300 300" style="enable-background:new 0 0 300 300;" xml:space="preserve">
<style type="text/css">
	.st0{opacity:0.2;}
	.st1{fill:#EBECEE;}
</style>
<g class="st0">
	<circle class="st1" cx="272.7" cy="27.3" r="27.3"/>
	<path class="st1" d="M289.8,75h-34.1c-5.6,0-10.2,4.6-10.2,10.2v37.5v13.6H54.5v-13.6V10.2C54.5,4.6,50,0,44.3,0H10.2
		C4.6,0,0,4.6,0,10.2v112.5v20.5v37.5c0,5.6,4.6,10.2,10.2,10.2h112.5v98.9c0,5.6,4.6,10.2,10.2,10.2H167c5.6,0,10.2-4.6,10.2-10.2
		v-98.9h112.5c5.6,0,10.2-4.6,10.2-10.2v-37.5v-20.5V85.2C300,79.6,295.4,75,289.8,75z"/>
</g>
</svg>
