<svg xmlns="http://www.w3.org/2000/svg" viewBox="0 0 44 44"><defs><style>.cls-1{fill:#dfc089;}.cls-2{fill:#ebecee;}</style></defs><title>Asset 1</title><g id="Layer_2" data-name="Layer 2"><g id="Layer_1-2" data-name="Layer 1"><circle class="cls-1" cx="40" cy="4" r="4"/><path class="cls-2" d="M42.5,11h-5A1.5,1.5,0,0,0,36,12.5V20H8V1.5A1.5,1.5,0,0,0,6.5,0h-5A1.5,1.5,0,0,0,0,1.5v25A1.5,1.5,0,0,0,1.5,28H18V42.5A1.5,1.5,0,0,0,19.5,44h5A1.5,1.5,0,0,0,26,42.5V28H42.5A1.5,1.5,0,0,0,44,26.5v-14A1.5,1.5,0,0,0,42.5,11Z"/></g></g></svg>